<svg width="16" height="16">
    <circle cx="0" cy="0" r="1" fill="srgba(34,34,34,0.286275)"/>
    <circle cx="1" cy="0" r="1" fill="srgba(34,34,34,0.901961)"/>
    <circle cx="2" cy="0" r="1" fill="srgba(34,34,34,1)"/>
    <circle cx="3" cy="0" r="1" fill="srgba(34,34,34,1)"/>
    <circle cx="4" cy="0" r="1" fill="srgba(34,34,34,1)"/>
    <circle cx="5" cy="0" r="1" fill="srgba(34,34,34,1)"/>
    <circle cx="6" cy="0" r="1" fill="srgba(34,34,34,1)"/>
    <circle cx="7" cy="0" r="1" fill="srgba(34,34,34,1)"/>
    <circle cx="8" cy="0" r="1" fill="srgba(34,34,34,1)"/>
    <circle cx="9" cy="0" r="1" fill="srgba(34,34,34,1)"/>
    <circle cx="10" cy="0" r="1" fill="srgba(34,34,34,1)"/>
    <circle cx="11" cy="0" r="1" fill="srgba(34,34,34,1)"/>
    <circle cx="12" cy="0" r="1" fill="srgba(34,34,34,1)"/>
    <circle cx="13" cy="0" r="1" fill="srgba(34,34,34,1)"/>
    <circle cx="14" cy="0" r="1" fill="srgba(34,34,34,0.901961)"/>
    <circle cx="15" cy="0" r="1" fill="srgba(34,34,34,0.286275)"/>
    <circle cx="0" cy="1" r="1" fill="srgba(34,34,34,0.901961)"/>
    <circle cx="1" cy="1" r="1" fill="srgba(34,34,34,1)"/>
    <circle cx="2" cy="1" r="1" fill="srgba(34,34,34,1)"/>
    <circle cx="3" cy="1" r="1" fill="srgba(34,34,34,1)"/>
    <circle cx="4" cy="1" r="1" fill="srgba(50,80,88,1)"/>
    <circle cx="5" cy="1" r="1" fill="srgba(61,114,128,1)"/>
    <circle cx="6" cy="1" r="1" fill="srgba(41,55,59,1)"/>
    <circle cx="7" cy="1" r="1" fill="srgba(34,34,34,1)"/>
    <circle cx="8" cy="1" r="1" fill="srgba(34,34,34,1)"/>
    <circle cx="9" cy="1" r="1" fill="srgba(41,55,59,1)"/>
    <circle cx="10" cy="1" r="1" fill="srgba(61,114,128,1)"/>
    <circle cx="11" cy="1" r="1" fill="srgba(50,80,88,1)"/>
    <circle cx="12" cy="1" r="1" fill="srgba(34,34,34,1)"/>
    <circle cx="13" cy="1" r="1" fill="srgba(34,34,34,1)"/>
    <circle cx="14" cy="1" r="1" fill="srgba(34,34,34,1)"/>
    <circle cx="15" cy="1" r="1" fill="srgba(34,34,34,0.901961)"/>
    <circle cx="0" cy="2" r="1" fill="srgba(34,34,34,1)"/>
    <circle cx="1" cy="2" r="1" fill="srgba(34,34,34,1)"/>
    <circle cx="2" cy="2" r="1" fill="srgba(34,34,34,1)"/>
    <circle cx="3" cy="2" r="1" fill="srgba(42,58,62,1)"/>
    <circle cx="4" cy="2" r="1" fill="srgba(72,144,164,1)"/>
    <circle cx="5" cy="2" r="1" fill="srgba(45,66,71,1)"/>
    <circle cx="6" cy="2" r="1" fill="srgba(69,136,154,1)"/>
    <circle cx="7" cy="2" r="1" fill="srgba(56,100,111,1)"/>
    <circle cx="8" cy="2" r="1" fill="srgba(56,100,111,1)"/>
    <circle cx="9" cy="2" r="1" fill="srgba(69,136,154,1)"/>
    <circle cx="10" cy="2" r="1" fill="srgba(45,66,71,1)"/>
    <circle cx="11" cy="2" r="1" fill="srgba(72,144,164,1)"/>
    <circle cx="12" cy="2" r="1" fill="srgba(42,58,62,1)"/>
    <circle cx="13" cy="2" r="1" fill="srgba(34,34,34,1)"/>
    <circle cx="14" cy="2" r="1" fill="srgba(34,34,34,1)"/>
    <circle cx="15" cy="2" r="1" fill="srgba(34,34,34,1)"/>
    <circle cx="0" cy="3" r="1" fill="srgba(34,34,34,1)"/>
    <circle cx="1" cy="3" r="1" fill="srgba(34,34,34,1)"/>
    <circle cx="2" cy="3" r="1" fill="srgba(34,34,34,1)"/>
    <circle cx="3" cy="3" r="1" fill="srgba(53,88,98,1)"/>
    <circle cx="4" cy="3" r="1" fill="srgba(54,91,101,1)"/>
    <circle cx="5" cy="3" r="1" fill="srgba(34,34,34,1)"/>
    <circle cx="6" cy="3" r="1" fill="srgba(34,34,34,1)"/>
    <circle cx="7" cy="3" r="1" fill="srgba(75,153,174,1)"/>
    <circle cx="8" cy="3" r="1" fill="srgba(75,154,175,1)"/>
    <circle cx="9" cy="3" r="1" fill="srgba(34,34,34,1)"/>
    <circle cx="10" cy="3" r="1" fill="srgba(34,34,34,1)"/>
    <circle cx="11" cy="3" r="1" fill="srgba(54,91,101,1)"/>
    <circle cx="12" cy="3" r="1" fill="srgba(53,88,98,1)"/>
    <circle cx="13" cy="3" r="1" fill="srgba(34,34,34,1)"/>
    <circle cx="14" cy="3" r="1" fill="srgba(34,34,34,1)"/>
    <circle cx="15" cy="3" r="1" fill="srgba(34,34,34,1)"/>
    <circle cx="0" cy="4" r="1" fill="srgba(34,34,34,1)"/>
    <circle cx="1" cy="4" r="1" fill="srgba(34,34,34,1)"/>
    <circle cx="2" cy="4" r="1" fill="srgba(34,34,34,1)"/>
    <circle cx="3" cy="4" r="1" fill="srgba(49,77,85,1)"/>
    <circle cx="4" cy="4" r="1" fill="srgba(57,103,115,1)"/>
    <circle cx="5" cy="4" r="1" fill="srgba(34,34,34,1)"/>
    <circle cx="6" cy="4" r="1" fill="srgba(51,83,92,1)"/>
    <circle cx="7" cy="4" r="1" fill="srgba(73,147,167,1)"/>
    <circle cx="8" cy="4" r="1" fill="srgba(73,147,167,1)"/>
    <circle cx="9" cy="4" r="1" fill="srgba(51,83,92,1)"/>
    <circle cx="10" cy="4" r="1" fill="srgba(34,34,34,1)"/>
    <circle cx="11" cy="4" r="1" fill="srgba(58,103,116,1)"/>
    <circle cx="12" cy="4" r="1" fill="srgba(49,77,85,1)"/>
    <circle cx="13" cy="4" r="1" fill="srgba(34,34,34,1)"/>
    <circle cx="14" cy="4" r="1" fill="srgba(34,34,34,1)"/>
    <circle cx="15" cy="4" r="1" fill="srgba(34,34,34,1)"/>
    <circle cx="0" cy="5" r="1" fill="srgba(34,34,34,1)"/>
    <circle cx="1" cy="5" r="1" fill="srgba(34,34,34,1)"/>
    <circle cx="2" cy="5" r="1" fill="srgba(39,48,51,1)"/>
    <circle cx="3" cy="5" r="1" fill="srgba(64,123,139,1)"/>
    <circle cx="4" cy="5" r="1" fill="srgba(86,185,212,1)"/>
    <circle cx="5" cy="5" r="1" fill="srgba(75,154,175,1)"/>
    <circle cx="6" cy="5" r="1" fill="srgba(84,180,207,1)"/>
    <circle cx="7" cy="5" r="1" fill="srgba(65,125,141,1)"/>
    <circle cx="8" cy="5" r="1" fill="srgba(65,125,141,1)"/>
    <circle cx="9" cy="5" r="1" fill="srgba(84,180,207,1)"/>
    <circle cx="10" cy="5" r="1" fill="srgba(75,153,174,1)"/>
    <circle cx="11" cy="5" r="1" fill="srgba(86,187,214,1)"/>
    <circle cx="12" cy="5" r="1" fill="srgba(64,121,137,1)"/>
    <circle cx="13" cy="5" r="1" fill="srgba(39,48,51,1)"/>
    <circle cx="14" cy="5" r="1" fill="srgba(34,34,34,1)"/>
    <circle cx="15" cy="5" r="1" fill="srgba(34,34,34,1)"/>
    <circle cx="0" cy="6" r="1" fill="srgba(34,34,34,1)"/>
    <circle cx="1" cy="6" r="1" fill="srgba(54,92,102,1)"/>
    <circle cx="2" cy="6" r="1" fill="srgba(72,146,166,1)"/>
    <circle cx="3" cy="6" r="1" fill="srgba(45,67,73,1)"/>
    <circle cx="4" cy="6" r="1" fill="srgba(73,148,168,1)"/>
    <circle cx="5" cy="6" r="1" fill="srgba(69,136,155,1)"/>
    <circle cx="6" cy="6" r="1" fill="srgba(43,59,64,1)"/>
    <circle cx="7" cy="6" r="1" fill="srgba(55,95,105,1)"/>
    <circle cx="8" cy="6" r="1" fill="srgba(55,95,106,1)"/>
    <circle cx="9" cy="6" r="1" fill="srgba(43,59,64,1)"/>
    <circle cx="10" cy="6" r="1" fill="srgba(70,138,157,1)"/>
    <circle cx="11" cy="6" r="1" fill="srgba(74,150,171,1)"/>
    <circle cx="12" cy="6" r="1" fill="srgba(45,67,73,1)"/>
    <circle cx="13" cy="6" r="1" fill="srgba(72,146,166,1)"/>
    <circle cx="14" cy="6" r="1" fill="srgba(54,92,102,1)"/>

    <circle cx="15" cy="6" r="1" fill="srgba(34,34,34,1)"/>
    <circle cx="0" cy="7" r="1" fill="srgba(34,34,34,1)"/>
    <circle cx="1" cy="7" r="1" fill="srgba(75,155,176,1)"/>
    <circle cx="2" cy="7" r="1" fill="srgba(34,34,34,1)"/>
    <circle cx="3" cy="7" r="1" fill="srgba(34,34,34,1)"/>
    <circle cx="4" cy="7" r="1" fill="srgba(55,95,105,1)"/>
    <circle cx="5" cy="7" r="1" fill="srgba(72,144,163,1)"/>
    <circle cx="6" cy="7" r="1" fill="srgba(45,66,72,1)"/>
    <circle cx="7" cy="7" r="1" fill="srgba(97,218,251,1)"/>
    <circle cx="8" cy="7" r="1" fill="srgba(97,218,251,1)"/>
    <circle cx="9" cy="7" r="1" fill="srgba(45,66,72,1)"/>
    <circle cx="10" cy="7" r="1" fill="srgba(74,150,171,1)"/>
    <circle cx="11" cy="7" r="1" fill="srgba(55,95,105,1)"/>
    <circle cx="12" cy="7" r="1" fill="srgba(34,34,34,1)"/>
    <circle cx="13" cy="7" r="1" fill="srgba(34,34,34,1)"/>
    <circle cx="14" cy="7" r="1" fill="srgba(75,154,175,1)"/>
    <circle cx="15" cy="7" r="1" fill="srgba(34,34,34,1)"/>
    <circle cx="0" cy="8" r="1" fill="srgba(34,34,34,1)"/>
    <circle cx="1" cy="8" r="1" fill="srgba(73,147,167,1)"/>
    <circle cx="2" cy="8" r="1" fill="srgba(44,64,70,1)"/>
    <circle cx="3" cy="8" r="1" fill="srgba(34,34,34,1)"/>
    <circle cx="4" cy="8" r="1" fill="srgba(67,131,148,1)"/>
    <circle cx="5" cy="8" r="1" fill="srgba(76,157,179,1)"/>
    <circle cx="6" cy="8" r="1" fill="srgba(38,46,48,1)"/>
    <circle cx="7" cy="8" r="1" fill="srgba(87,189,217,1)"/>
    <circle cx="8" cy="8" r="1" fill="srgba(87,189,217,1)"/>
    <circle cx="9" cy="8" r="1" fill="srgba(38,46,48,1)"/>
    <circle cx="10" cy="8" r="1" fill="srgba(78,163,186,1)"/>
    <circle cx="11" cy="8" r="1" fill="srgba(67,131,148,1)"/>
    <circle cx="12" cy="8" r="1" fill="srgba(34,34,34,1)"/>
    <circle cx="13" cy="8" r="1" fill="srgba(44,64,70,1)"/>
    <circle cx="14" cy="8" r="1" fill="srgba(73,147,168,1)"/>
    <circle cx="15" cy="8" r="1" fill="srgba(34,34,34,1)"/>
    <circle cx="0" cy="9" r="1" fill="srgba(34,34,34,1)"/>
    <circle cx="1" cy="9" r="1" fill="srgba(36,41,43,1)"/>
    <circle cx="2" cy="9" r="1" fill="srgba(66,129,145,1)"/>
    <circle cx="3" cy="9" r="1" fill="srgba(74,149,170,1)"/>
    <circle cx="4" cy="9" r="1" fill="srgba(82,175,200,1)"/>
    <circle cx="5" cy="9" r="1" fill="srgba(63,118,134,1)"/>
    <circle cx="6" cy="9" r="1" fill="srgba(62,115,129,1)"/>
    <circle cx="7" cy="9" r="1" fill="srgba(34,34,34,1)"/>
    <circle cx="8" cy="9" r="1" fill="srgba(34,34,34,1)"/>
    <circle cx="9" cy="9" r="1" fill="srgba(62,115,129,1)"/>
    <circle cx="10" cy="9" r="1" fill="srgba(62,117,132,1)"/>
    <circle cx="11" cy="9" r="1" fill="srgba(83,177,202,1)"/>
    <circle cx="12" cy="9" r="1" fill="srgba(74,149,170,1)"/>
    <circle cx="13" cy="9" r="1" fill="srgba(66,129,145,1)"/>
    <circle cx="14" cy="9" r="1" fill="srgba(36,41,43,1)"/>
    <circle cx="15" cy="9" r="1" fill="srgba(34,34,34,1)"/>
    <circle cx="0" cy="10" r="1" fill="srgba(34,34,34,1)"/>
    <circle cx="1" cy="10" r="1" fill="srgba(34,34,34,1)"/>
    <circle cx="2" cy="10" r="1" fill="srgba(34,34,34,1)"/>
    <circle cx="3" cy="10" r="1" fill="srgba(44,64,70,1)"/>
    <circle cx="4" cy="10" r="1" fill="srgba(72,144,164,1)"/>
    <circle cx="5" cy="10" r="1" fill="srgba(61,113,127,1)"/>
    <circle cx="6" cy="10" r="1" fill="srgba(80,169,193,1)"/>
    <circle cx="7" cy="10" r="1" fill="srgba(80,168,192,1)"/>
    <circle cx="8" cy="10" r="1" fill="srgba(80,168,192,1)"/>
    <circle cx="9" cy="10" r="1" fill="srgba(80,167,191,1)"/>
    <circle cx="10" cy="10" r="1" fill="srgba(61,113,127,1)"/>
    <circle cx="11" cy="10" r="1" fill="srgba(73,147,167,1)"/>
    <circle cx="12" cy="10" r="1" fill="srgba(44,63,68,1)"/>
    <circle cx="13" cy="10" r="1" fill="srgba(34,34,34,1)"/>
    <circle cx="14" cy="10" r="1" fill="srgba(34,34,34,1)"/>
    <circle cx="15" cy="10" r="1" fill="srgba(34,34,34,1)"/>
    <circle cx="0" cy="11" r="1" fill="srgba(34,34,34,1)"/>
    <circle cx="1" cy="11" r="1" fill="srgba(34,34,34,1)"/>
    <circle cx="2" cy="11" r="1" fill="srgba(34,34,34,1)"/>
    <circle cx="3" cy="11" r="1" fill="srgba(52,85,94,1)"/>
    <circle cx="4" cy="11" r="1" fill="srgba(54,92,102,1)"/>
    <circle cx="5" cy="11" r="1" fill="srgba(34,34,34,1)"/>
    <circle cx="6" cy="11" r="1" fill="srgba(37,43,45,1)"/>
    <circle cx="7" cy="11" r="1" fill="srgba(77,160,182,1)"/>
    <circle cx="8" cy="11" r="1" fill="srgba(75,152,174,1)"/>
    <circle cx="9" cy="11" r="1" fill="srgba(37,43,44,1)"/>
    <circle cx="10" cy="11" r="1" fill="srgba(34,34,34,1)"/>
    <circle cx="11" cy="11" r="1" fill="srgba(54,92,102,1)"/>
    <circle cx="12" cy="11" r="1" fill="srgba(52,85,94,1)"/>
    <circle cx="13" cy="11" r="1" fill="srgba(34,34,34,1)"/>
    <circle cx="14" cy="11" r="1" fill="srgba(34,34,34,1)"/>
    <circle cx="15" cy="11" r="1" fill="srgba(34,34,34,1)"/>
    <circle cx="0" cy="12" r="1" fill="srgba(34,34,34,1)"/>
    <circle cx="1" cy="12" r="1" fill="srgba(34,34,34,1)"/>
    <circle cx="2" cy="12" r="1" fill="srgba(34,34,34,1)"/>
    <circle cx="3" cy="12" r="1" fill="srgba(50,79,88,1)"/>
    <circle cx="4" cy="12" r="1" fill="srgba(58,103,116,1)"/>
    <circle cx="5" cy="12" r="1" fill="srgba(34,34,34,1)"/>
    <circle cx="6" cy="12" r="1" fill="srgba(43,60,65,1)"/>
    <circle cx="7" cy="12" r="1" fill="srgba(76,156,178,1)"/>
    <circle cx="8" cy="12" r="1" fill="srgba(76,156,178,1)"/>
    <circle cx="9" cy="12" r="1" fill="srgba(43,60,65,1)"/>
    <circle cx="10" cy="12" r="1" fill="srgba(34,34,34,1)"/>
    <circle cx="11" cy="12" r="1" fill="srgba(58,103,116,1)"/>
    <circle cx="12" cy="12" r="1" fill="srgba(50,79,88,1)"/>
    <circle cx="13" cy="12" r="1" fill="srgba(34,34,34,1)"/>
    <circle cx="14" cy="12" r="1" fill="srgba(34,34,34,1)"/>
    <circle cx="15" cy="12" r="1" fill="srgba(34,34,34,1)"/>
    <circle cx="0" cy="13" r="1" fill="srgba(34,34,34,1)"/>
    <circle cx="1" cy="13" r="1" fill="srgba(34,34,34,1)"/>
    <circle cx="2" cy="13" r="1" fill="srgba(34,34,34,1)"/>
    <circle cx="3" cy="13" r="1" fill="srgba(35,38,38,1)"/>
    <circle cx="4" cy="13" r="1" fill="srgba(74,149,170,1)"/>
    <circle cx="5" cy="13" r="1" fill="srgba(73,147,167,1)"/>
    <circle cx="6" cy="13" r="1" fill="srgba(68,134,152,1)"/>
    <circle cx="7" cy="13" r="1" fill="srgba(37,44,46,1)"/>
    <circle cx="8" cy="13" r="1" fill="srgba(37,44,46,1)"/>
    <circle cx="9" cy="13" r="1" fill="srgba(68,134,152,1)"/>
    <circle cx="10" cy="13" r="1" fill="srgba(73,147,167,1)"/>
    <circle cx="11" cy="13" r="1" fill="srgba(73,149,169,1)"/>
    <circle cx="12" cy="13" r="1" fill="srgba(35,38,38,1)"/>
    <circle cx="13" cy="13" r="1" fill="srgba(34,34,34,1)"/>
    <circle cx="14" cy="13" r="1" fill="srgba(34,34,34,1)"/>
    <circle cx="15" cy="13" r="1" fill="srgba(34,34,34,1)"/>
    <circle cx="0" cy="14" r="1" fill="srgba(34,34,34,0.901961)"/>
    <circle cx="1" cy="14" r="1" fill="srgba(34,34,34,1)"/>
    <circle cx="2" cy="14" r="1" fill="srgba(34,34,34,1)"/>
    <circle cx="3" cy="14" r="1" fill="srgba(34,34,34,1)"/>
    <circle cx="4" cy="14" r="1" fill="srgba(34,34,34,1)"/>
    <circle cx="5" cy="14" r="1" fill="srgba(34,34,34,1)"/>
    <circle cx="6" cy="14" r="1" fill="srgba(34,34,34,1)"/>
    <circle cx="7" cy="14" r="1" fill="srgba(34,34,34,1)"/>
    <circle cx="8" cy="14" r="1" fill="srgba(34,34,34,1)"/>
    <circle cx="9" cy="14" r="1" fill="srgba(34,34,34,1)"/>
    <circle cx="10" cy="14" r="1" fill="srgba(34,34,34,1)"/>
    <circle cx="11" cy="14" r="1" fill="srgba(34,34,34,1)"/>
    <circle cx="12" cy="14" r="1" fill="srgba(34,34,34,1)"/>
    <circle cx="13" cy="14" r="1" fill="srgba(34,34,34,1)"/>
    <circle cx="14" cy="14" r="1" fill="srgba(34,34,34,1)"/>
    <circle cx="15" cy="14" r="1" fill="srgba(34,34,34,0.905882)"/>
    <circle cx="0" cy="15" r="1" fill="srgba(34,34,34,0.290196)"/>
    <circle cx="1" cy="15" r="1" fill="srgba(34,34,34,0.905882)"/>
    <circle cx="2" cy="15" r="1" fill="srgba(34,34,34,1)"/>
    <circle cx="3" cy="15" r="1" fill="srgba(34,34,34,1)"/>
    <circle cx="4" cy="15" r="1" fill="srgba(34,34,34,1)"/>
    <circle cx="5" cy="15" r="1" fill="srgba(34,34,34,1)"/>
    <circle cx="6" cy="15" r="1" fill="srgba(34,34,34,1)"/>
    <circle cx="7" cy="15" r="1" fill="srgba(34,34,34,1)"/>
    <circle cx="8" cy="15" r="1" fill="srgba(34,34,34,1)"/>
    <circle cx="9" cy="15" r="1" fill="srgba(34,34,34,1)"/>

    <circle cx="10" cy="15" r="1" fill="srgba(34,34,34,1)"/>
    <circle cx="11" cy="15" r="1" fill="srgba(34,34,34,1)"/>
    <circle cx="12" cy="15" r="1" fill="srgba(34,34,34,1)"/>
    <circle cx="13" cy="15" r="1" fill="srgba(34,34,34,1)"/>
    <circle cx="14" cy="15" r="1" fill="srgba(34,34,34,0.894118)"/>
    <circle cx="15" cy="15" r="1" fill="srgba(34,34,34,0.290196)"/>
</svg>